# This file uses meters as units for non-parametric coordinates.

mtllib bottle 5.mtl
g default
v 86.847031 -17.431732 -99.606506
v 85.480057 -17.431732 -100.973450
v 83.612732 -17.431732 -101.473877
v 81.745415 -17.431732 -100.973450
v 80.378433 -17.431732 -99.606506
v 79.878082 -17.431732 -97.739197
v 80.378433 -17.431732 -95.871948
v 81.745415 -17.431732 -94.504944
v 83.612732 -17.431732 -94.004517
v 85.480057 -17.431732 -94.504944
v 86.847031 -17.431732 -95.871948
v 87.347382 -17.431732 -97.739197
v 90.081329 -17.431732 -101.473877
v 87.347382 -17.431732 -104.207886
v 83.612732 -17.431732 -105.208435
v 79.878082 -17.431732 -104.207886
v 77.144135 -17.431732 -101.473877
v 76.143440 -17.431732 -97.739197
v 77.144135 -17.431732 -94.004517
v 79.878082 -17.431732 -91.270569
v 83.612732 -17.431732 -90.269958
v 87.347382 -17.431732 -91.270569
v 90.081329 -17.431732 -94.004517
v 91.082031 -17.431732 -97.739197
v 90.926666 -16.857870 -101.961853
v 87.835434 -16.857870 -105.053223
v 83.612732 -16.857870 -106.184570
v 79.390030 -16.857870 -105.053223
v 76.298798 -16.857870 -101.961853
v 75.167328 -16.857870 -97.739197
v 76.298798 -16.857870 -93.516541
v 79.390030 -16.857870 -90.425171
v 83.612732 -16.857870 -89.293823
v 87.835434 -16.857870 -90.425171
v 90.926666 -16.857870 -93.516541
v 92.058136 -16.857870 -97.739197
v 92.092468 -14.637854 -102.634888
v 88.508514 -14.637854 -106.219055
v 83.612732 -14.637854 -107.530762
v 78.716957 -14.637854 -106.219055
v 75.132996 -14.637854 -102.634888
v 73.821182 -14.637854 -97.739197
v 75.132996 -14.637854 -92.843506
v 78.716957 -14.637854 -89.259399
v 83.612732 -14.637854 -87.947632
v 88.508514 -14.637854 -89.259399
v 92.092468 -14.637854 -92.843506
v 93.404282 -14.637854 -97.739197
v 93.315636 -11.843976 -103.341187
v 89.214706 -11.843976 -107.442139
v 83.612732 -11.843976 -108.943176
v 78.010757 -11.843976 -107.442139
v 73.909836 -11.843976 -103.341187
v 72.408791 -11.843976 -97.739197
v 73.909836 -11.843976 -92.137207
v 78.010757 -11.843976 -88.036255
v 83.612732 -11.843976 -86.535278
v 89.214706 -11.843976 -88.036255
v 93.315636 -11.843976 -92.137207
v 94.816681 -11.843976 -97.739197
v 93.315636 -10.471030 -103.341187
v 89.214706 -10.471030 -107.442139
v 83.612732 -10.471030 -108.943176
v 78.010757 -10.471030 -107.442139
v 73.909836 -10.471030 -103.341187
v 72.408791 -10.471030 -97.739197
v 73.909836 -10.471030 -92.137207
v 78.010757 -10.471030 -88.036255
v 83.612732 -10.471030 -86.535278
v 89.214706 -10.471030 -88.036255
v 93.315636 -10.471030 -92.137207
v 94.816681 -10.471030 -97.739197
v 90.081329 -9.050097 -101.473877
v 87.347382 -9.050097 -104.207886
v 83.612732 -9.050097 -105.208435
v 79.878082 -9.050097 -104.207886
v 77.144135 -9.050097 -101.473877
v 76.143440 -9.050097 -97.739197
v 77.144135 -9.050097 -94.004517
v 79.878082 -9.050097 -91.270569
v 83.612732 -9.050097 -90.269958
v 87.347382 -9.050097 -91.270569
v 90.081329 -9.050097 -94.004517
v 91.082031 -9.050097 -97.739197
v 86.847031 -9.050097 -99.606506
v 85.480057 -9.050097 -100.973450
v 83.612732 -9.050097 -101.473877
v 81.745415 -9.050097 -100.973450
v 80.378433 -9.050097 -99.606506
v 79.878082 -9.050097 -97.739197
v 80.378433 -9.050097 -95.871948
v 81.745415 -9.050097 -94.504944
v 83.612732 -9.050097 -94.004517
v 85.480057 -9.050097 -94.504944
v 86.847031 -9.050097 -95.871948
v 87.347382 -9.050097 -97.739197
v 83.612732 -17.431732 -97.739197
v 86.847031 -7.859106 -99.606506
v 85.480057 -7.859106 -100.973450
v 83.612732 -7.859106 -97.739197
v 83.612732 -7.859106 -101.473877
v 81.745415 -7.859106 -100.973450
v 80.378433 -7.859106 -99.606506
v 79.878082 -7.859106 -97.739197
v 80.378433 -7.859106 -95.871948
v 81.745415 -7.859106 -94.504944
v 83.612732 -7.859106 -94.004517
v 85.480057 -7.859106 -94.504944
v 86.847031 -7.859106 -95.871948
v 87.347382 -7.859106 -97.739197
vt 0.458012 0.001992
vt 0.524172 0.001992
vt 0.524172 0.042759
vt 0.449368 0.042759
vt 0.590329 0.001992
vt 0.598974 0.042759
vt 0.524172 0.200467
vt 0.437444 0.200467
vt 0.409580 0.001992
vt 0.394605 0.042759
vt 0.638761 0.001992
vt 0.653736 0.042759
vt 0.610897 0.200467
vt 0.524172 0.398942
vt 0.424934 0.398942
vt 0.373953 0.200467
vt 0.674389 0.200467
vt 0.623409 0.398942
vt 0.524172 0.496475
vt 0.424934 0.496475
vt 0.352286 0.398942
vt 0.696055 0.398942
vt 0.623409 0.496475
vt 0.524172 0.597416
vt 0.458012 0.597416
vt 0.352286 0.496475
vt 0.696055 0.496475
vt 0.590329 0.597416
vt 0.409580 0.597416
vt 0.638761 0.597416
vt 0.107543 0.001992
vt 0.173701 0.001992
vt 0.173701 0.042759
vt 0.098899 0.042759
vt 0.239860 0.001992
vt 0.248505 0.042759
vt 0.173701 0.200467
vt 0.086975 0.200467
vt 0.059111 0.001992
vt 0.044136 0.042759
vt 0.288292 0.001992
vt 0.303267 0.042759
vt 0.260428 0.200467
vt 0.173701 0.398942
vt 0.074464 0.398942
vt 0.023484 0.200467
vt 0.323920 0.200467
vt 0.272938 0.398942
vt 0.173701 0.496475
vt 0.074464 0.496475
vt 0.001817 0.398942
vt 0.345586 0.398942
vt 0.272938 0.496475
vt 0.173701 0.597416
vt 0.107543 0.597416
vt 0.001817 0.496475
vt 0.345586 0.496475
vt 0.239860 0.597416
vt 0.059111 0.597416
vt 0.288292 0.597416
vt 0.092679 0.959705
vt 0.092679 0.926625
vt 0.177286 0.926625
vt 0.177286 0.959705
vt 0.092679 0.893547
vt 0.177286 0.893547
vt 0.092679 0.983919
vt 0.177286 0.983919
vt 0.092679 0.869331
vt 0.177286 0.869331
vt 0.001817 0.827388
vt 0.001817 0.794310
vt 0.086424 0.794310
vt 0.086424 0.827388
vt 0.001817 0.761230
vt 0.086424 0.761230
vt 0.001817 0.851604
vt 0.086424 0.851604
vt 0.001817 0.737016
vt 0.086424 0.737016
vt 0.270835 0.676080
vt 0.246621 0.700296
vt 0.189324 0.667216
vt 0.237756 0.618786
vt 0.303915 0.733376
vt 0.237756 0.733376
vt 0.171598 0.733376
vt 0.303915 0.667216
vt 0.303915 0.601059
vt 0.246621 0.766454
vt 0.189324 0.799533
vt 0.336993 0.676080
vt 0.370073 0.618786
vt 0.270835 0.790670
vt 0.237756 0.847965
vt 0.361209 0.700296
vt 0.418505 0.667216
vt 0.303915 0.799533
vt 0.303915 0.865691
vt 0.370073 0.733376
vt 0.436230 0.733376
vt 0.336993 0.790670
vt 0.370073 0.847965
vt 0.361209 0.766454
vt 0.418505 0.799533
vt 0.688734 0.865693
vt 0.640303 0.914125
vt 0.607224 0.856827
vt 0.631439 0.832613
vt 0.574144 0.931850
vt 0.574144 0.865693
vt 0.706461 0.799533
vt 0.640303 0.799533
vt 0.673382 0.971419
vt 0.574144 0.998008
vt 0.507986 0.914125
vt 0.541065 0.856827
vt 0.688734 0.733376
vt 0.631439 0.766455
vt 0.474907 0.971419
vt 0.459555 0.865693
vt 0.516850 0.832613
vt 0.640303 0.684944
vt 0.607224 0.742239
vt 0.441828 0.799533
vt 0.507986 0.799533
vt 0.574144 0.667218
vt 0.574144 0.733376
vt 0.459555 0.733376
vt 0.516850 0.766455
vt 0.574144 0.601059
vt 0.673382 0.627650
vt 0.507986 0.684944
vt 0.541065 0.742239
vt 0.474907 0.627650
vt 0.157137 0.700294
vt 0.132922 0.724508
vt 0.099842 0.667214
vt 0.099842 0.733374
vt 0.166001 0.667214
vt 0.066763 0.724508
vt 0.157137 0.634137
vt 0.042548 0.700294
vt 0.132922 0.609921
vt 0.033684 0.667214
vt 0.099842 0.601057
vt 0.042548 0.634137
vt 0.066763 0.609921
vt 0.867973 0.496475
vt 0.801815 0.496475
vt 0.801815 0.455708
vt 0.876619 0.455708
vt 0.735657 0.496475
vt 0.727011 0.455708
vt 0.801815 0.298000
vt 0.888542 0.298000
vt 0.715088 0.298000
vt 0.801815 0.099525
vt 0.901052 0.099525
vt 0.702578 0.099525
vt 0.801815 0.001992
vt 0.901052 0.001992
vt 0.702578 0.001992
vt 0.745137 0.500116
vt 0.811296 0.500116
vt 0.811296 0.540883
vt 0.736492 0.540883
vt 0.877454 0.500116
vt 0.886100 0.540883
vt 0.811296 0.698591
vt 0.724568 0.698591
vt 0.898023 0.698591
vt 0.811296 0.897066
vt 0.712058 0.897066
vt 0.910533 0.897066
vt 0.811296 0.994599
vt 0.712058 0.994599
vt 0.910533 0.994599
vt 0.249523 0.953938
vt 0.216444 0.953938
vt 0.216444 0.869331
vt 0.249523 0.869331
vt 0.183364 0.953938
vt 0.183364 0.869331
vt 0.256268 0.869331
vt 0.289347 0.869331
vt 0.289347 0.953938
vt 0.256268 0.953938
vt 0.322426 0.869331
vt 0.322426 0.953938
vn 0.000000 -1.000000 -0.000000
vn 0.000000 -1.000000 -0.000000
vn 0.097300 -0.980882 -0.168530
vn 0.168528 -0.980883 -0.097300
vn 0.000000 -1.000000 0.000000
vn -0.000000 -0.980884 -0.194593
vn 0.000000 -1.000000 -0.000000
vn -0.097299 -0.980883 -0.168530
vn 0.000000 -1.000000 -0.000000
vn -0.168527 -0.980883 -0.097300
vn 0.000000 -1.000000 -0.000000
vn -0.194599 -0.980883 -0.000000
vn 0.000000 -1.000000 0.000000
vn -0.168527 -0.980883 0.097301
vn 0.000000 -1.000000 0.000000
vn -0.097299 -0.980883 0.168527
vn 0.000000 -1.000000 0.000000
vn -0.000000 -0.980884 0.194594
vn 0.000000 -1.000000 0.000000
vn 0.097299 -0.980883 0.168527
vn 0.000000 -1.000000 0.000000
vn 0.168527 -0.980883 0.097301
vn 0.000000 -1.000000 -0.000000
vn 0.194599 -0.980883 -0.000000
vn 0.253404 -0.862057 -0.438912
vn 0.438922 -0.862053 -0.253403
vn -0.000000 -0.862059 -0.506808
vn -0.253404 -0.862057 -0.438912
vn -0.438922 -0.862053 -0.253402
vn -0.506814 -0.862056 0.000000
vn -0.438918 -0.862055 0.253401
vn -0.253397 -0.862062 0.438906
vn -0.000000 -0.862066 0.506796
vn 0.253396 -0.862064 0.438904
vn 0.438916 -0.862056 0.253401
vn 0.506814 -0.862056 0.000000
vn 0.610168 -0.505399 -0.610137
vn 0.610168 -0.505399 -0.610137
vn 0.626252 -0.464378 -0.626228
vn 0.626252 -0.464379 -0.626227
vn 0.223311 -0.505410 -0.833483
vn 0.223311 -0.505410 -0.833483
vn 0.229207 -0.464378 -0.855463
vn 0.229207 -0.464378 -0.855463
vn -0.223311 -0.505409 -0.833483
vn -0.223311 -0.505409 -0.833483
vn -0.229207 -0.464378 -0.855463
vn -0.229207 -0.464378 -0.855463
vn -0.610168 -0.505400 -0.610137
vn -0.610167 -0.505400 -0.610137
vn -0.626252 -0.464379 -0.626227
vn -0.626252 -0.464379 -0.626227
vn -0.833485 -0.505395 -0.223334
vn -0.833485 -0.505395 -0.223334
vn -0.855459 -0.464378 -0.229221
vn -0.855459 -0.464378 -0.229221
vn -0.833485 -0.505395 0.223335
vn -0.833485 -0.505395 0.223335
vn -0.855459 -0.464379 0.229221
vn -0.855459 -0.464379 0.229221
vn -0.610168 -0.505394 0.610142
vn -0.610168 -0.505394 0.610142
vn -0.626249 -0.464380 0.626230
vn -0.626249 -0.464381 0.626229
vn -0.223317 -0.505401 0.833486
vn -0.223317 -0.505401 0.833486
vn -0.229209 -0.464375 0.855464
vn -0.229209 -0.464375 0.855464
vn 0.223316 -0.505401 0.833486
vn 0.223317 -0.505401 0.833486
vn 0.229209 -0.464375 0.855465
vn 0.229209 -0.464375 0.855464
vn 0.610169 -0.505392 0.610142
vn 0.610169 -0.505392 0.610142
vn 0.626249 -0.464380 0.626230
vn 0.626249 -0.464380 0.626230
vn 0.833484 -0.505397 0.223334
vn 0.833484 -0.505397 0.223334
vn 0.855458 -0.464381 0.229221
vn 0.855458 -0.464381 0.229221
vn 0.833485 -0.505396 -0.223334
vn 0.833484 -0.505397 -0.223334
vn 0.855457 -0.464382 -0.229221
vn 0.855457 -0.464382 -0.229221
vn 0.675084 -0.297563 -0.675069
vn 0.675084 -0.297563 -0.675069
vn 0.247089 -0.297555 -0.922176
vn 0.247089 -0.297554 -0.922176
vn -0.247089 -0.297554 -0.922176
vn -0.247089 -0.297555 -0.922176
vn -0.675084 -0.297564 -0.675068
vn -0.675084 -0.297563 -0.675068
vn -0.922172 -0.297562 -0.247096
vn -0.922172 -0.297560 -0.247096
vn -0.922172 -0.297560 0.247096
vn -0.922172 -0.297562 0.247096
vn -0.675082 -0.297567 0.675069
vn -0.675081 -0.297568 0.675069
vn -0.247086 -0.297556 0.922176
vn -0.247086 -0.297555 0.922177
vn 0.247086 -0.297555 0.922177
vn 0.247086 -0.297556 0.922177
vn 0.675081 -0.297569 0.675069
vn 0.675081 -0.297567 0.675070
vn 0.922171 -0.297565 0.247096
vn 0.922171 -0.297563 0.247096
vn 0.922171 -0.297563 -0.247096
vn 0.922171 -0.297566 -0.247095
vn 0.707109 0.000000 -0.707105
vn 0.707109 0.000000 -0.707105
vn 0.258817 0.000000 -0.965926
vn 0.258817 0.000000 -0.965926
vn -0.258817 0.000000 -0.965926
vn -0.258817 0.000000 -0.965926
vn -0.707110 0.000000 -0.707104
vn -0.707110 0.000000 -0.707104
vn -0.965926 0.000000 -0.258818
vn -0.965926 0.000000 -0.258818
vn -0.965926 0.000000 0.258819
vn -0.965926 0.000000 0.258819
vn -0.707110 0.000000 0.707104
vn -0.707110 0.000000 0.707104
vn -0.258808 0.000000 0.965929
vn -0.258808 0.000000 0.965929
vn 0.258808 0.000000 0.965929
vn 0.258808 0.000000 0.965929
vn 0.707109 0.000000 0.707105
vn 0.707109 0.000000 0.707105
vn 0.965926 0.000000 0.258819
vn 0.965926 0.000000 0.258819
vn 0.965926 0.000000 -0.258818
vn 0.965926 0.000000 -0.258818
vn 0.307963 0.934636 -0.177801
vn 0.177801 0.934637 -0.307962
vn 0.128333 0.966500 -0.222282
vn 0.222281 0.966500 -0.128333
vn -0.000000 0.934637 -0.355603
vn -0.000000 0.966501 -0.256664
vn -0.177801 0.934637 -0.307962
vn -0.128333 0.966500 -0.222282
vn -0.307964 0.934636 -0.177802
vn -0.222281 0.966500 -0.128333
vn -0.355605 0.934636 -0.000000
vn -0.256668 0.966500 -0.000000
vn -0.307963 0.934637 0.177801
vn -0.222281 0.966500 0.128333
vn -0.177800 0.934637 0.307962
vn -0.128332 0.966500 0.222281
vn -0.000000 0.934637 0.355603
vn -0.000000 0.966500 0.256666
vn 0.177799 0.934637 0.307962
vn 0.128332 0.966500 0.222281
vn 0.307962 0.934637 0.177801
vn 0.222280 0.966500 0.128333
vn 0.355603 0.934637 0.000000
vn 0.256668 0.966500 0.000000
vn 0.000000 1.000000 -0.000000
vn 0.000000 1.000000 -0.000000
vn 0.000000 1.000000 0.000000
vn 0.000000 1.000000 0.000000
vn 0.000000 1.000000 0.000000
vn 0.000000 1.000000 0.000000
vn 0.000000 1.000000 0.000000
vn 0.000000 1.000000 0.000000
vn 0.000000 1.000000 0.000000
vn 0.000000 1.000000 0.000000
vn 0.000000 1.000000 0.000000
vn 0.000000 1.000000 0.000000
vn 0.000000 -1.000000 0.000000
vn 0.000000 1.000000 -0.000000
vn 0.000000 1.000000 0.000000
vn 0.000000 1.000000 -0.000000
vn 0.000000 1.000000 0.000000
vn 0.000000 1.000000 0.000000
vn 0.000000 1.000000 -0.000000
vn 0.000000 1.000000 -0.000000
vn 0.000000 1.000000 0.000000
vn 0.000000 1.000000 0.000000
vn 0.000000 1.000000 0.000000
vn 0.000000 1.000000 -0.000000
vn 0.000000 1.000000 0.000000
vn 0.000000 1.000000 -0.000000
vn 0.707098 0.000000 -0.707116
vn 0.707098 0.000000 -0.707116
vn 0.707098 0.000000 -0.707116
vn 0.707098 0.000000 -0.707116
vn 0.258859 0.000000 -0.965915
vn 0.258859 0.000000 -0.965915
vn 0.258859 0.000000 -0.965915
vn 0.258859 0.000000 -0.965915
vn -0.258860 0.000000 -0.965915
vn -0.258860 0.000000 -0.965915
vn -0.258860 0.000000 -0.965915
vn -0.258860 0.000000 -0.965915
vn -0.707096 0.000000 -0.707118
vn -0.707096 0.000000 -0.707118
vn -0.707096 0.000000 -0.707118
vn -0.707096 0.000000 -0.707118
vn -0.965925 0.000000 -0.258822
vn -0.965925 0.000000 -0.258822
vn -0.965925 0.000000 -0.258822
vn -0.965925 0.000000 -0.258822
vn -0.965923 0.000000 0.258830
vn -0.965923 0.000000 0.258830
vn -0.965923 0.000000 0.258830
vn -0.965923 0.000000 0.258830
vn -0.707113 0.000000 0.707101
vn -0.707113 0.000000 0.707101
vn -0.707113 0.000000 0.707101
vn -0.707113 0.000000 0.707101
vn -0.258857 0.000000 0.965916
vn -0.258857 0.000000 0.965916
vn -0.258857 0.000000 0.965916
vn -0.258857 0.000000 0.965916
vn 0.258856 0.000000 0.965916
vn 0.258856 0.000000 0.965916
vn 0.258856 0.000000 0.965916
vn 0.258856 0.000000 0.965916
vn 0.707114 0.000000 0.707099
vn 0.707114 0.000000 0.707099
vn 0.707114 0.000000 0.707099
vn 0.707114 0.000000 0.707099
vn 0.965923 0.000000 0.258830
vn 0.965923 0.000000 0.258830
vn 0.965923 0.000000 0.258830
vn 0.965923 0.000000 0.258830
vn 0.965925 0.000000 -0.258822
vn 0.965925 0.000000 -0.258822
vn 0.965925 0.000000 -0.258822
vn 0.965925 0.000000 -0.258822
s 1
g pCylinder8
usemtl initialShadingGroup
f 1/81/1 2/82/2 14/83/3 13/84/4
f 2/82/2 3/86/5 15/87/6 14/83/3
f 3/86/5 4/90/7 16/91/8 15/87/6
f 4/90/7 5/94/9 17/95/10 16/91/8
f 5/94/9 6/98/11 18/99/12 17/95/10
f 6/98/11 7/102/13 19/103/14 18/99/12
f 7/102/13 8/104/15 20/105/16 19/103/14
f 8/104/15 9/100/17 21/101/18 20/105/16
f 9/100/17 10/96/19 22/97/20 21/101/18
f 10/96/19 11/92/21 23/93/22 22/97/20
f 11/92/21 12/88/23 24/89/24 23/93/22
f 12/88/23 1/81/1 13/84/4 24/89/24
f 13/35/4 14/41/3 26/42/25 25/36/26
f 14/149/3 15/150/6 27/151/27 26/152/25
f 15/150/6 16/153/8 28/154/28 27/151/27
f 16/9/8 17/1/10 29/4/29 28/10/28
f 17/1/10 18/2/12 30/3/30 29/4/29
f 18/2/12 19/5/14 31/6/31 30/3/30
f 19/5/14 20/11/16 32/12/32 31/6/31
f 20/164/16 21/165/18 33/166/33 32/167/32
f 21/165/18 22/168/20 34/169/34 33/166/33
f 22/39/20 23/31/22 35/34/35 34/40/34
f 23/31/22 24/32/24 36/33/36 35/34/35
f 24/32/24 13/35/4 25/36/26 36/33/36
s 2
f 25/36/37 26/42/38 38/47/39 37/43/40
s 3
f 26/152/41 27/151/42 39/155/43 38/156/44
s 4
f 27/151/45 28/154/46 40/157/47 39/155/48
s 5
f 28/10/49 29/4/50 41/8/51 40/16/52
s 6
f 29/4/53 30/3/54 42/7/55 41/8/56
s 7
f 30/3/57 31/6/58 43/13/59 42/7/60
s 8
f 31/6/61 32/12/62 44/17/63 43/13/64
s 9
f 32/167/65 33/166/66 45/170/67 44/171/68
s 10
f 33/166/69 34/169/70 46/172/71 45/170/72
s 11
f 34/40/73 35/34/74 47/38/75 46/46/76
s 12
f 35/34/77 36/33/78 48/37/79 47/38/80
s 13
f 36/33/81 25/36/82 37/43/83 48/37/84
s 2
f 37/43/40 38/47/39 50/52/85 49/48/86
s 3
f 38/156/44 39/155/43 51/158/87 50/159/88
s 4
f 39/155/48 40/157/47 52/160/89 51/158/90
s 5
f 40/16/52 41/8/51 53/15/91 52/21/92
s 6
f 41/8/56 42/7/55 54/14/93 53/15/94
s 7
f 42/7/60 43/13/59 55/18/95 54/14/96
s 8
f 43/13/64 44/17/63 56/22/97 55/18/98
s 9
f 44/171/68 45/170/67 57/173/99 56/174/100
s 10
f 45/170/72 46/172/71 58/175/101 57/173/102
s 11
f 46/46/76 47/38/75 59/45/103 58/51/104
s 12
f 47/38/80 48/37/79 60/44/105 59/45/106
s 13
f 48/37/84 37/43/83 49/48/107 60/44/108
s 2
f 49/48/86 50/52/85 62/57/109 61/53/110
s 3
f 50/159/88 51/158/87 63/161/111 62/162/112
s 4
f 51/158/90 52/160/89 64/163/113 63/161/114
s 5
f 52/21/92 53/15/91 65/20/115 64/26/116
s 6
f 53/15/94 54/14/93 66/19/117 65/20/118
s 7
f 54/14/96 55/18/95 67/23/119 66/19/120
s 8
f 55/18/98 56/22/97 68/27/121 67/23/122
s 9
f 56/174/100 57/173/99 69/176/123 68/177/124
s 10
f 57/173/102 58/175/101 70/178/125 69/176/126
s 11
f 58/51/104 59/45/103 71/50/127 70/56/128
s 12
f 59/45/106 60/44/105 72/49/129 71/50/130
s 13
f 60/44/108 49/48/107 61/53/131 72/49/132
s 14
f 61/53/133 62/57/134 74/60/135 73/58/136
f 62/114/134 63/115/137 75/110/138 74/107/135
f 63/115/137 64/120/139 76/116/140 75/110/138
f 64/26/139 65/20/141 77/25/142 76/29/140
f 65/20/141 66/19/143 78/24/144 77/25/142
f 66/19/143 67/23/145 79/28/146 78/24/144
f 67/23/145 68/27/147 80/30/148 79/28/146
f 68/135/147 69/131/149 81/127/150 80/133/148
f 69/131/149 70/132/151 82/123/152 81/127/150
f 70/56/151 71/50/153 83/55/154 82/59/152
f 71/50/153 72/49/155 84/54/156 83/55/154
f 72/49/155 61/53/133 73/58/136 84/54/156
f 73/106/136 74/107/135 86/108/157 85/109/158
f 74/107/135 75/110/138 87/111/159 86/108/157
f 75/110/138 76/116/140 88/117/160 87/111/159
f 76/116/140 77/121/142 89/122/161 88/117/160
f 77/121/142 78/125/144 90/126/162 89/122/161
f 78/125/144 79/129/146 91/130/163 90/126/162
f 79/129/146 80/133/148 92/134/164 91/130/163
f 80/133/148 81/127/150 93/128/165 92/134/164
f 81/127/150 82/123/152 94/124/166 93/128/165
f 82/123/152 83/118/154 95/119/167 94/124/166
f 83/118/154 84/112/156 96/113/168 95/119/167
f 84/112/156 73/106/136 85/109/158 96/113/168
s 1
f 2/82/2 1/81/1 97/85/169
f 3/86/5 2/82/2 97/85/169
f 4/90/7 3/86/5 97/85/169
f 5/94/9 4/90/7 97/85/169
f 6/98/11 5/94/9 97/85/169
f 7/102/13 6/98/11 97/85/169
f 8/104/15 7/102/13 97/85/169
f 9/100/17 8/104/15 97/85/169
f 10/96/19 9/100/17 97/85/169
f 11/92/21 10/96/19 97/85/169
f 12/88/23 11/92/21 97/85/169
f 1/81/1 12/88/23 97/85/169
s 15
f 98/136/170 99/137/171 100/138/172
f 99/137/171 101/139/173 100/138/172
f 101/139/173 102/141/174 100/138/172
f 102/141/174 103/143/175 100/138/172
f 103/143/175 104/145/176 100/138/172
f 104/145/176 105/147/177 100/138/172
f 105/147/177 106/148/178 100/138/172
f 106/148/178 107/146/179 100/138/172
f 107/146/179 108/144/180 100/138/172
f 108/144/180 109/142/181 100/138/172
f 109/142/181 110/140/182 100/138/172
f 110/140/182 98/136/170 100/138/172
s off
f 85/75/183 86/79/184 99/80/185 98/76/186
f 86/179/187 87/180/188 101/181/189 99/182/190
f 87/180/191 88/183/192 102/184/193 101/181/194
f 88/67/195 89/61/196 103/64/197 102/68/198
f 89/61/199 90/62/200 104/63/201 103/64/202
f 90/62/203 91/65/204 105/66/205 104/63/206
f 91/65/207 92/69/208 106/70/209 105/66/210
f 92/185/211 93/186/212 107/187/213 106/188/214
f 93/186/215 94/189/216 108/190/217 107/187/218
f 94/77/219 95/71/220 109/74/221 108/78/222
f 95/71/223 96/72/224 110/73/225 109/74/226
f 96/72/227 85/75/228 98/76/229 110/73/230
