# This file uses meters as units for non-parametric coordinates.

mtllib box 5.mtl
g default
v 150.110107 -4.382023 29.211182
v 159.698975 -4.382023 29.211182
v 150.110107 1.753359 29.211182
v 159.698975 1.753359 29.211182
v 150.110107 2.509231 2.956299
v 159.698975 2.509231 2.956299
v 150.110107 2.509231 0.226318
v 159.698975 2.509231 0.226318
v 150.110107 1.753359 -26.028564
v 159.698975 1.753359 -26.028564
v 150.110107 -4.382023 -26.028564
v 159.698975 -4.382023 -26.028564
v 151.118774 2.017099 2.956299
v 158.690308 2.017099 2.956299
v 158.690308 2.017099 0.226318
v 151.118774 2.017099 0.226318
vt 0.489425 0.001847
vt 0.725604 0.001847
vt 0.725604 0.560343
vt 0.489425 0.560343
vt 0.613350 0.629149
vt 0.601679 0.629149
vt 0.613350 0.685004
vt 0.601679 0.685004
vt 0.733045 0.001847
vt 0.969225 0.001847
vt 0.969225 0.560343
vt 0.733045 0.560343
vt 0.856971 0.629149
vt 0.845300 0.629149
vt 0.856971 0.685004
vt 0.845300 0.685004
vt 0.744023 0.875488
vt 0.744023 0.688996
vt 0.755694 0.688996
vt 0.755694 0.875488
vt 0.761830 0.688996
vt 0.998008 0.688996
vt 0.998008 0.925176
vt 0.761830 0.925176
vt 0.001992 0.001847
vt 0.238170 0.001847
vt 0.238170 0.560343
vt 0.001992 0.560343
vt 0.238170 0.629149
vt 0.001992 0.629149
vt 0.213326 0.685004
vt 0.026836 0.685004
vt 0.245806 0.126508
vt 0.481984 0.126508
vt 0.481984 0.685005
vt 0.245806 0.685005
vt 0.245806 0.057702
vt 0.481984 0.057702
vt 0.270650 0.001847
vt 0.457140 0.001847
vn 0.000000 0.000000 1.000000
vn 0.000000 0.000000 1.000000
vn 0.000000 0.967237 0.253876
vn 0.000000 0.967237 0.253876
vn 0.000000 0.999586 0.028778
vn 0.000000 0.999586 0.028778
vn 0.000000 1.000000 0.000000
vn 0.000000 1.000000 0.000000
vn 0.000000 1.000000 0.000000
vn 0.000000 1.000000 0.000000
vn 0.000000 0.999586 -0.028778
vn 0.000000 0.999586 -0.028778
vn 0.000000 0.967237 -0.253876
vn 0.000000 0.967237 -0.253876
vn 0.000000 0.000000 -1.000000
vn 0.000000 0.000000 -1.000000
vn 0.000000 -1.000000 0.000000
vn 0.000000 -1.000000 0.000000
vn 0.000000 -1.000000 0.000000
vn 0.000000 -1.000000 0.000000
vn 1.000000 0.000000 0.000000
vn 1.000000 0.000000 0.000000
vn 1.000000 -0.000000 0.000000
vn 1.000000 -0.000000 0.000000
vn 0.997867 0.065287 0.000000
vn 0.997867 0.065287 0.000000
vn -1.000000 0.000000 0.000000
vn -1.000000 0.000000 0.000000
vn -1.000000 0.000000 0.000000
vn -1.000000 0.000000 0.000000
vn -0.997865 0.065310 0.000000
vn -0.997865 0.065310 0.000000
vn 0.000000 0.000000 -1.000000
vn 0.000000 0.000000 -1.000000
vn 0.000000 0.000000 -1.000000
vn 0.000000 0.000000 -1.000000
vn -0.438496 0.898733 0.000000
vn -0.438496 0.898733 0.000000
vn 0.000000 0.000000 1.000000
vn 0.000000 0.000000 1.000000
vn 0.000000 0.000000 1.000000
vn 0.000000 0.000000 1.000000
vn 0.438496 0.898733 0.000000
vn 0.438496 0.898733 0.000000
s 1
g pCube11
usemtl initialShadingGroup
f 1/25/1 2/26/2 4/27/3 3/28/4
f 3/28/4 4/27/3 6/29/5 5/30/6
s off
f 13/17/7 14/18/8 15/19/9 16/20/10
s 2
f 7/37/11 8/38/12 10/34/13 9/33/14
f 9/33/14 10/34/13 12/35/15 11/36/16
s off
f 11/21/17 12/22/18 2/23/19 1/24/20
s 3
f 2/1/21 12/2/22 10/3/23 4/4/24
f 4/4/24 10/3/23 8/5/25 6/6/26
s 4
f 11/9/27 1/10/28 3/11/29 9/12/30
f 9/12/30 3/11/29 5/13/31 7/14/32
s off
f 5/30/33 6/29/34 14/31/35 13/32/36
s 3
f 6/6/26 8/5/25 15/7/37 14/8/38
s off
f 8/38/39 7/37/40 16/39/41 15/40/42
s 4
f 7/14/32 5/13/31 13/15/43 16/16/44
