# This file uses meters as units for non-parametric coordinates.

mtllib box 2.mtl
g default
v 0.794910 -10.675529 19.942017
v 31.862812 -10.675529 19.942017
v 0.794910 5.877531 19.942017
v 31.862812 5.877531 19.942017
v 0.794910 7.916849 2.498169
v 31.862812 7.916849 2.498169
v 0.794910 7.916849 0.684326
v 31.862812 7.916849 0.684326
v 0.794910 5.877531 -16.759399
v 31.862812 5.877531 -16.759399
v 0.794910 -10.675529 -16.759399
v 31.862812 -10.675529 -16.759399
v 4.063004 9.572332 2.498169
v 28.594715 9.572332 2.498169
v 28.594715 9.572332 0.684326
v 4.063004 9.572332 0.684326
v -4.374123 -1.026734 24.358765
v 28.391346 -1.026734 16.309204
v 28.391346 -1.026734 -13.126709
v 0.068111 -1.026734 -10.404663
vt 0.489425 0.001847
vt 0.725604 0.001847
vt 0.725604 0.560343
vt 0.489425 0.560343
vt 0.613350 0.629149
vt 0.601679 0.629149
vt 0.613350 0.685004
vt 0.601679 0.685004
vt 0.733045 0.001847
vt 0.969225 0.001847
vt 0.969225 0.560343
vt 0.733045 0.560343
vt 0.856971 0.629149
vt 0.845300 0.629149
vt 0.856971 0.685004
vt 0.845300 0.685004
vt 0.744023 0.875488
vt 0.744023 0.688996
vt 0.755694 0.688996
vt 0.755694 0.875488
vt 0.761830 0.688996
vt 0.998008 0.688996
vt 0.998008 0.925176
vt 0.761830 0.925176
vt 0.001992 0.001847
vt 0.238170 0.001847
vt 0.238170 0.560343
vt 0.001992 0.560343
vt 0.238170 0.629149
vt 0.001992 0.629149
vt 0.213326 0.685004
vt 0.026836 0.685004
vt 0.245806 0.126508
vt 0.481984 0.126508
vt 0.481984 0.685005
vt 0.245806 0.685005
vt 0.245806 0.057702
vt 0.481984 0.057702
vt 0.270650 0.001847
vt 0.457140 0.001847
vt 0.969225 0.327395
vt 0.001992 0.327395
vt 0.238170 0.327395
vt 0.489425 0.327395
vt 0.481984 0.359457
vt 0.725604 0.327395
vt 0.733045 0.327395
vt 0.245806 0.359457
vn 0.125112 0.001289 0.992142
vn 0.125112 -0.000327 0.992143
vn 0.034910 0.922108 0.385355
vn 0.058271 0.826499 0.559914
vn 0.000000 0.993236 0.116117
vn 0.000000 0.993236 0.116117
vn 0.000000 1.000000 0.000000
vn 0.000000 1.000000 0.000000
vn 0.000000 1.000000 0.000000
vn 0.000000 1.000000 0.000000
vn 0.000000 0.993236 -0.116118
vn 0.000000 0.993236 -0.116118
vn -0.014212 0.897527 -0.440730
vn -0.020592 0.813199 -0.581622
vn -0.045779 -0.015658 -0.998829
vn -0.045784 0.005458 -0.998937
vn 0.000000 -1.000000 0.000000
vn 0.000000 -1.000000 0.000000
vn 0.000000 -1.000000 0.000000
vn 0.000000 -1.000000 0.000000
vn 0.999944 -0.010628 0.000000
vn 0.999944 -0.010628 0.000000
vn 0.896548 -0.442947 0.000000
vn 0.896548 -0.442947 0.000000
vn 0.997171 0.075166 0.000000
vn 0.997171 0.075166 0.000000
vn -0.998008 0.011464 -0.062036
vn -0.997956 -0.015341 -0.062033
vn -0.934750 0.350609 -0.057582
vn -0.936276 0.346623 -0.056927
vn -0.997171 0.075168 0.000000
vn -0.997171 0.075168 0.000000
vn 0.000000 0.000000 1.000000
vn 0.000000 0.000000 1.000000
vn 0.000000 0.000000 1.000000
vn 0.000000 0.000000 1.000000
vn 0.451888 0.892075 0.000000
vn 0.451888 0.892075 0.000000
vn 0.000000 0.000000 -1.000000
vn 0.000000 0.000000 -1.000000
vn 0.000000 0.000000 -1.000000
vn 0.000000 0.000000 -1.000000
vn -0.451889 0.892074 0.000000
vn -0.451889 0.892074 0.000000
vn 0.125096 0.015713 0.992020
vn 0.125096 0.015713 0.992020
vn 0.940953 0.338538 0.000000
vn 0.940953 0.338538 0.000000
vn -0.040835 0.452233 -0.890965
vn -0.040835 0.452233 -0.890965
vn -0.963496 -0.260939 -0.059891
vn -0.963496 -0.260939 -0.059891
s 1
g pCube8
usemtl initialShadingGroup
f 17/42/1 18/43/2 4/27/3 3/28/4
f 3/28/4 4/27/3 6/29/5 5/30/6
s off
f 13/17/7 14/18/8 15/19/9 16/20/10
s 2
f 7/37/11 8/38/12 10/34/13 9/33/14
f 9/33/14 10/34/13 19/45/15 20/48/16
s off
f 11/21/17 12/22/18 2/23/19 1/24/20
s 3
f 18/44/21 19/46/22 10/3/23 4/4/24
f 4/4/24 10/3/23 8/5/25 6/6/26
s 4
f 20/47/27 17/41/28 3/11/29 9/12/30
f 9/12/30 3/11/29 5/13/31 7/14/32
s off
f 5/30/33 6/29/34 14/31/35 13/32/36
s 3
f 6/6/26 8/5/25 15/7/37 14/8/38
s off
f 8/38/39 7/37/40 16/39/41 15/40/42
s 4
f 7/14/32 5/13/31 13/15/43 16/16/44
s 1
f 1/25/45 2/26/46 18/43/2 17/42/1
s 3
f 2/1/47 12/2/48 19/46/22 18/44/21
s 2
f 20/48/16 19/45/15 12/35/49 11/36/50
s 4
f 11/9/51 1/10/52 17/41/28 20/47/27
